<svg xmlns="http://www.w3.org/2000/svg" width="269.1" height="337" viewBox="0 0 269.1 337">
    <path fill="currentColor" d="M185.7 291.4l-.9.5c-49.6 28.6-112.7 12.9-140.4-35.2-23.7-41-12-84.5.4-130.6 5-18.8 10.2-38.1 12.7-57.3 17.1 7 35.4 12 53.2 17 46.7 13 90.8 25.3 114.6 66.5 27.8 48 10 110.5-39.6 139.1M31.9 18.1L17.4 0l8.2 21.7C44 92.1-33.4 183.3 17.8 272c36.3 62.9 117.9 83.6 182.3 46.5l.9-.5c64.4-37.2 87.2-118.2 50.9-181.1C201.3 49.3 84.6 67 31.9 18.1"/>
    <path fill="currentColor" d="M182.4 165.4L139.8 190l-28.3-49.1-17.3-8.5-1.5 18.8 39.3 68.1 60.9-35.1 5.6-15.7-16.1-3.1z"/>
</svg>
