<svg xmlns="http://www.w3.org/2000/svg" viewBox="0 0 32 29.9">
    <title>
        Snapchat
    </title>
    <path fill="currentColor" d="M16.3 0c1.3 0 5.8.4 7.9 5.1.7 1.6.5 4.3.4 6.5v.8c.1.1.3.1.5.1.4 0 .9-.2 1.4-.4.2-.1.5-.1.6-.1.2 0 .5 0 .7.1.6.2 1 .6 1 1.1 0 .6-.5 1.1-1.6 1.6-.1 0-.3.1-.5.2-.6.2-1.5.5-1.8 1.1-.1.3-.1.7.2 1.2.1.2 2 4.6 6.4 5.4.3.1.6.4.6.7 0 .1 0 .2-.1.3-.3.8-1.7 1.3-4.2 1.7-.1.1-.2.5-.2.8 0 .2-.1.5-.2.7-.1.4-.4.5-.7.5-.2 0-.4 0-.7-.1-.5-.1-1-.2-1.7-.2-.4 0-.8 0-1.2.1-.8.1-1.5.6-2.3 1.2-1.1.8-2.4 1.7-4.4 1.7H16c-2 0-3.2-.9-4.4-1.7-.8-.6-1.5-1-2.3-1.2-.4-.1-.8-.1-1.2-.1-.7 0-1.3.1-1.7.2-.3.1-.5.1-.7.1-.5 0-.7-.3-.8-.6-.1-.3-.1-.5-.2-.8-.1-.2-.1-.7-.2-.8-2.6-.3-3.9-.9-4.3-1.6-.2-.2-.2-.3-.2-.4 0-.3.2-.6.6-.7 4.4-.7 6.3-5.2 6.4-5.4.2-.5.3-.9.2-1.2-.3-.6-1.2-.9-1.8-1.1-.2 0-.3-.1-.5-.2-1.5-.6-1.7-1.2-1.6-1.7.1-.6.9-1.1 1.6-1.1.2 0 .4 0 .5.1.6.3 1.1.4 1.5.4.3 0 .5-.1.6-.1l-.1-.8c-.1-2-.3-4.7.4-6.3C9.9.4 14.3 0 15.6 0h.7z"/>
</svg>
