<svg xmlns="http://www.w3.org/2000/svg" viewBox="0 0 23.2 28">
    <title>
        Youtube
    </title>
    <path fill="currentColor" d="M14.8 19.4v3.3c0 .7-.2 1-.6 1-.2 0-.5-.1-.7-.3v-4.7c.2-.2.5-.3.7-.3.3 0 .6.4.6 1zm5.2.1v.7h-1.4v-.7c0-.7.2-1.1.7-1.1s.7.4.7 1.1zM4.9 16h1.7v-1.5H1.7V16h1.6v8.9h1.6V16zm4.5 8.9h1.4v-7.7H9.4v5.9c-.3.4-.6.7-.9.7-.2 0-.3-.1-.3-.3v-6.2H6.8v6.1c0 .5 0 .9.1 1.1.2.4.5.5.9.5.5 0 1-.3 1.6-1v.9zm6.7-2.3v-3.1c0-.7 0-1.2-.1-1.5-.2-.6-.6-.9-1.1-.9-.5 0-1 .3-1.5.8v-3.4H12v10.4h1.4v-.8c.5.6 1 .9 1.5.9s.9-.3 1.1-.9c.1-.2.1-.8.1-1.5zm5.3-.1v-.2H20v1c-.1.4-.3.6-.6.6-.5 0-.7-.4-.7-1.1v-1.4h2.8v-1.6c0-.8-.1-1.4-.4-1.8-.4-.5-1-.8-1.7-.8s-1.3.3-1.7.8c-.3.4-.4 1-.4 1.8v2.7c0 .8.2 1.4.5 1.8.4.5 1 .8 1.7.8s1.3-.3 1.7-.8c.2-.3.3-.5.3-.8-.1-.3-.1-.6-.1-1zM11.9 8.2V4.9c0-.7-.2-1.1-.7-1.1-.5 0-.7.4-.7 1.1v3.3c0 .7.2 1.1.7 1.1.5 0 .7-.4.7-1.1zm11.3 11.7c0 1.8 0 3.7-.4 5.5-.3 1.2-1.3 2.1-2.5 2.3-2.9.3-5.8.3-8.7.3s-5.8 0-8.7-.3c-1.2-.1-2.2-1-2.5-2.3-.4-1.7-.4-3.7-.4-5.5 0-1.8 0-3.7.4-5.5.3-1.2 1.3-2.1 2.5-2.3 2.9-.3 5.8-.3 8.7-.3s5.8 0 8.7.3c1.2.1 2.2 1 2.5 2.3.4 1.8.4 3.7.4 5.5zM7.6 0h1.6L7.3 6.2v4.2H5.7V6.2c-.1-.8-.5-1.9-1-3.3C4.4 2 4.1 1 3.7 0h1.7l1.1 4.1L7.6 0zm5.7 5.2v2.7c0 .8-.1 1.5-.4 1.8-.4.5-.9.8-1.7.8-.7 0-1.3-.3-1.6-.8-.3-.4-.4-1-.4-1.8V5.2c0-.8.1-1.4.4-1.8.4-.5.9-.8 1.6-.8.7 0 1.3.3 1.7.8.3.4.4 1 .4 1.8zm5.3-2.5v7.8h-1.4v-.9c-.6.7-1.1 1-1.6 1s-.8-.2-.9-.6c-.1-.2-.1-.6-.1-1.2V2.7H16v6.2c0 .2.1.3.3.3.3 0 .6-.2.9-.7v-6l1.4.2z"/>
</svg>
