<svg xmlns="http://www.w3.org/2000/svg" viewBox="0 0 36.5 36.4">
    <title>
        Calendar
    </title>
    <path fill="currentColor" d="M35.3 4.2H26V.6c0-.3-.2-.6-.5-.6s-.6.3-.6.6v3.7H11.6V.6c0-.3-.3-.6-.6-.6s-.6.3-.6.6v3.7H1.2C.5 4.2 0 4.8 0 5.5v29.7c0 .7.5 1.2 1.2 1.2h34.1c.7 0 1.2-.5 1.2-1.2V5.5c0-.7-.5-1.3-1.2-1.3zm.1 10.9v20.1s0 .1-.1.1H1.2s-.1 0-.1-.1V15.1h34.3zM11 9.6c.3 0 .6-.3.6-.6V5.4h13.3v3.7c0 .3.3.6.6.6s.5-.3.5-.6V5.4h9.3s.1 0 .1.1V14H1.1V5.5s0-.1.1-.1h9.3v3.7c0 .3.2.5.5.5z"/>
    <path fill="currentColor" d="M16.2 30.1c.1.1.2.2.4.2s.3-.1.4-.2l8.8-9.1c.2-.2.2-.6 0-.8-.2-.2-.6-.2-.8 0l-8.4 8.7-3.7-3.8c-.2-.2-.6-.2-.8 0-.2.2-.2.6 0 .8l4.1 4.2zm9-9.7z"/>
</svg>
