<svg xmlns="http://www.w3.org/2000/svg" viewBox="0 0 27.7 27.7">
    <title>
        Pinterest
    </title>
    <path fill="currentColor" d="M13.9 0C6.2 0 0 6.2 0 13.9c0 5.9 3.7 10.9 8.8 12.9-.1-1.1-.2-2.8.1-4 .3-1.1 1.6-6.9 1.6-6.9s-.4-.8-.4-2.1c0-1.9 1.1-3.4 2.5-3.4 1.2 0 1.8.9 1.8 2 0 1.2-.8 3-1.1 4.6-.3 1.4.7 2.5 2 2.5 2.5 0 4.4-2.6 4.4-6.4 0-3.3-2.4-5.6-5.8-5.6-3.9 0-6.3 3-6.3 6 0 1.2.5 2.5 1 3.2.1.1.1.3.1.4-.1.4-.3 1.4-.4 1.6-.1.3-.2.3-.5.2-1.7-.8-2.8-3.3-2.8-5.4 0-4.4 3.2-8.4 9.2-8.4 4.8 0 8.5 3.4 8.5 8 0 4.8-3 8.6-7.2 8.6-1.4 0-2.7-.7-3.2-1.6 0 0-.7 2.6-.9 3.3-.3 1.2-1.2 2.7-1.7 3.6 1.3.4 2.7.6 4.1.6 7.7 0 13.9-6.2 13.9-13.9C27.7 6.2 21.5 0 13.9 0z"/>
</svg>
