<svg xmlns="http://www.w3.org/2000/svg" viewBox="0 0 37 36">
    <title>
        Print
    </title>
    <path fill="currentColor" d="M30.8 13.6c-1.2 0-2.2 1-2.2 2.2 0 1.2 1 2.2 2.2 2.2 1.2 0 2.2-1 2.2-2.2 0-1.2-1-2.2-2.2-2.2zm0 3.5c-.7 0-1.3-.6-1.3-1.3 0-.7.6-1.3 1.3-1.3.7 0 1.3.6 1.3 1.3s-.5 1.3-1.3 1.3z"/>
    <path fill="currentColor" d="M33.9 9.7h-2.6V.4c0-.2-.2-.4-.4-.4H6.2c-.3 0-.5.2-.5.4v9.2H3.1C1.4 9.7 0 11 0 12.7v13.2C0 27.6 1.4 29 3.1 29h2.6v6.6c0 .2.2.4.4.4h24.7c.2 0 .4-.2.4-.4V29h2.6c1.7 0 3.1-1.4 3.1-3.1V12.7c.1-1.7-1.3-3-3-3zM6.6.9h23.8v8.8H6.6V.9zm23.8 34.2H6.6V22h23.8v13.1zm5.7-9.2c0 1.2-1 2.2-2.2 2.2h-2.6v-6.6c0-.2-.2-.4-.4-.4H6.2c-.2 0-.4.2-.4.4v6.6H3.1c-1.2 0-2.2-1-2.2-2.2V12.7c0-1.2 1-2.2 2.2-2.2h30.8c1.2 0 2.2 1 2.2 2.2v13.2z"/>
</svg>
