<svg xmlns="http://www.w3.org/2000/svg"><symbol id="bg-footer" viewBox="0 0 269.1 337"><path fill="currentColor" d="M185.7 291.4l-.9.5c-49.6 28.6-112.7 12.9-140.4-35.2-23.7-41-12-84.5.4-130.6 5-18.8 10.2-38.1 12.7-57.3 17.1 7 35.4 12 53.2 17 46.7 13 90.8 25.3 114.6 66.5 27.8 48 10 110.5-39.6 139.1M31.9 18.1L17.4 0l8.2 21.7C44 92.1-33.4 183.3 17.8 272c36.3 62.9 117.9 83.6 182.3 46.5l.9-.5c64.4-37.2 87.2-118.2 50.9-181.1C201.3 49.3 84.6 67 31.9 18.1"/><path fill="currentColor" d="M182.4 165.4L139.8 190l-28.3-49.1-17.3-8.5-1.5 18.8 39.3 68.1 60.9-35.1 5.6-15.7-16.1-3.1z"/></symbol><symbol id="icon-announcement" viewBox="0 0 30 30"><title>Announcement</title><path fill="currentColor" d="M16.5 19.5v-3h-3v3h3zm0-6v-9h-3v9h3zM27 0c1.6 0 3 1.3 3 3v18c0 1.6-1.3 3-3 3H6l-6 6V3c0-1.6 1.3-3 3-3h24z"/></symbol><symbol id="icon-chevron-back" viewBox="0 0 5.8 10.9"><path fill="currentColor" d="M.3 6.1l4 4.4.1.2c.2.1.4.2.6.2.3 0 .5-.1.6-.3.3-.4.3-1 0-1.4L2.2 5.4l3.4-3.7c.3-.4.3-1 0-1.4L5.5.2C5.3.1 5.1 0 4.9 0c-.3 0-.5.1-.7.3l-4 4.4c-.3.5-.3 1.1.1 1.4z"/></symbol><symbol id="icon-chevron" viewBox="0 0 5.8 10.9"><path fill="currentColor" d="M5.5 4.8L1.5.4 1.4.2C1.2.1 1 0 .8 0 .5 0 .3.1.2.3c-.3.4-.3 1 0 1.4l3.4 3.8L.2 9.2c-.3.4-.3 1 0 1.4l.1.1c.2.1.4.2.6.2.3 0 .5-.1.7-.3l4-4.4c.3-.5.3-1.1-.1-1.4z"/></symbol><symbol id="icon-close" viewBox="0 0 30 30"><path fill="currentColor" d="M15 0C6.7 0 0 6.7 0 15s6.7 15 15 15 15-6.7 15-15S23.3 0 15 0zm7.6 20.5c.3.3.4.7.4 1.1s-.1.8-.4 1c-.3.3-.6.4-1 .4s-.8-.1-1.1-.4L15 17.1l-5.5 5.5c-.3.3-.7.4-1 .4-.4 0-.7-.1-1-.4S7 22 7 21.5c0-.4.2-.8.5-1.1l5.4-5.5-5.4-5.5c-.3-.2-.5-.5-.5-.9s.2-.8.5-1c.3-.4.6-.5 1-.5s.7.1 1 .4l5.5 5.5 5.5-5.5c.3-.3.6-.4 1-.4s.8.1 1 .4c.4.3.5.6.5 1.1 0 .4-.1.8-.4 1.1L17.1 15l5.5 5.5z"/></symbol><symbol id="icon-cross" viewBox="0 0 16 16"><path fill="currentColor" d="M10.13 8l5.45-5.46A1.53 1.53 0 0 0 16 1.46a1.39 1.39 0 0 0-.42-1 1.39 1.39 0 0 0-1-.42 1.54 1.54 0 0 0-1.08.42L8 5.88 2.54.42a1.5 1.5 0 0 0-2.08 0 1.32 1.32 0 0 0-.46 1 1.44 1.44 0 0 0 .46 1.12L5.88 8 .46 13.46A1.46 1.46 0 0 0 0 14.54a1.32 1.32 0 0 0 .46 1 1.5 1.5 0 0 0 2.08 0L8 10.13l5.46 5.45a1.54 1.54 0 0 0 1.08.42A1.43 1.43 0 0 0 16 14.54a1.54 1.54 0 0 0-.42-1.08z"/></symbol><symbol id="icon-doublechevron-back" viewBox="0 0 10.5 10.9"><path fill="currentColor" d="M5 6.1l4 4.4.1.2c.2.1.4.2.6.2.3 0 .5-.1.6-.3.3-.4.3-1 0-1.4L6.9 5.4l3.4-3.7c.3-.4.3-1 0-1.4l-.1-.1C10 .1 9.8 0 9.6 0c-.3 0-.5.1-.7.3l-4 4.4c-.3.5-.3 1.1.1 1.4z"/><path fill="currentColor" d="M.4 6.1l4 4.4v.2c.3.1.4.2.7.2.2 0 .5-.1.6-.3.3-.4.3-1 0-1.4L2.3 5.4l3.4-3.7c.3-.4.3-1 0-1.4L5.6.2C5.4.1 5.2 0 5 0c-.3 0-.5.1-.7.3l-4 4.4c-.4.5-.4 1.1.1 1.4z"/></symbol><symbol id="icon-doublechevron" viewBox="0 0 10.5 10.9"><path fill="currentColor" d="M5.5 4.8L1.5.4 1.4.2C1.2.1 1 0 .8 0 .5 0 .3.1.2.3c-.3.4-.3 1 0 1.4l3.4 3.8L.2 9.2c-.3.4-.3 1 0 1.4l.1.1c.2.1.4.2.6.2.3 0 .5-.1.7-.3l4-4.4c.3-.5.3-1.1-.1-1.4z"/><path fill="currentColor" d="M10.1 4.8L6.1.4V.2C5.8.1 5.7 0 5.4 0c-.2 0-.5.1-.6.3-.3.4-.3 1 0 1.4l3.4 3.8-3.4 3.7c-.3.4-.3 1 0 1.4l.1.1c.2.1.4.2.6.2.3 0 .5-.1.7-.3l4-4.4c.4-.5.4-1.1-.1-1.4z"/></symbol><symbol id="icon-error" viewBox="0 0 30 30"><title>Error</title><path fill="currentColor" d="M16.5 16.5v-9h-3v9h3zm0 6v-3h-3v3h3zM15 0c8.3 0 15 6.7 15 15s-6.7 15-15 15S0 23.3 0 15 6.7 0 15 0z"/></symbol><symbol id="icon-facebook" viewBox="0 0 5.7 11.3"><title>Facebook</title><path fill="currentColor" d="M1.2 11.2V5.7H0V3.8h1.3V2.4c0-1 .5-2.4 2.2-2.4h2.1v1.9H4.5c-.5 0-.7.3-.7.7v1.1h1.9l-.3 1.9H3.8v5.6H1.2z"/></symbol><symbol id="icon-menu" viewBox="0 0 25 16"><path fill="currentColor" d="M0 0h25v2H0zm0 7h25v2H0zm0 7h25v2H0z"/></symbol><symbol id="icon-social-facebook" viewBox="0 0 32 32"><title>Facebook</title><path fill="currentColor" d="M29 0H3C1.4 0 0 1.4 0 3v26c0 1.6 1.4 3 3 3h13V18h-4v-4h4v-2c0-3.3 2.7-6 6-6h4v4h-4c-1.1 0-2 .9-2 2v2h6l-1 4h-5v14h9c1.6 0 3-1.4 3-3V3c0-1.6-1.4-3-3-3z"/></symbol><symbol id="icon-social-instagram" viewBox="0 0 32 32"><title>Instagram</title><path fill="currentColor" d="M16 2.9c4.3 0 4.8 0 6.5.1 1.6.1 2.4.3 3 .5.7.3 1.3.6 1.8 1.2.6.6.9 1.1 1.2 1.8.2.6.5 1.4.5 3 .1 1.7.1 2.2.1 6.5s0 4.8-.1 6.5c-.1 1.6-.3 2.4-.5 3-.3.7-.6 1.3-1.2 1.8-.6.6-1.1.9-1.8 1.2-.6.2-1.4.5-3 .5-1.7.1-2.2.1-6.5.1s-4.8 0-6.5-.1c-1.6-.1-2.4-.3-3-.5-.7-.3-1.3-.6-1.8-1.2-.6-.6-.9-1.1-1.2-1.8-.2-.6-.5-1.4-.5-3-.1-1.7-.1-2.2-.1-6.5s0-4.8.1-6.5c.1-1.6.3-2.4.5-3 .3-.7.6-1.3 1.2-1.8.6-.6 1.1-.9 1.8-1.2.6-.2 1.5-.5 3-.5 1.7-.1 2.2-.1 6.5-.1zM16 0c-4.3 0-4.9 0-6.6.1-1.7.1-2.9.3-3.9.7-1.1.4-2 1-2.8 1.8-.9 1-1.4 1.9-1.9 2.9-.4 1-.7 2.2-.7 3.9C0 11.1 0 11.7 0 16s0 4.9.1 6.6c.1 1.7.4 2.9.7 3.9.4 1.1 1 2 1.8 2.8.9.9 1.8 1.4 2.8 1.8 1 .4 2.2.7 3.9.7 1.8.2 2.3.2 6.7.2s4.9 0 6.6-.1c1.7-.1 2.9-.4 3.9-.7 1-.4 1.9-1 2.8-1.8s1.4-1.8 1.8-2.8c.4-1 .7-2.2.7-3.9.2-1.8.2-2.3.2-6.7s0-4.9-.1-6.6c-.1-1.7-.4-2.9-.7-3.9-.4-1.1-.9-2-1.8-2.8-.9-.9-1.8-1.4-2.8-1.8-1-.4-2.2-.7-3.9-.7C20.9 0 20.3 0 16 0z"/><path fill="currentColor" d="M16 7.8c-4.5 0-8.2 3.7-8.2 8.2s3.7 8.2 8.2 8.2 8.2-3.7 8.2-8.2c0-4.5-3.7-8.2-8.2-8.2zm0 13.5c-2.9 0-5.3-2.4-5.3-5.3s2.4-5.3 5.3-5.3 5.3 2.4 5.3 5.3-2.4 5.3-5.3 5.3zM26.5 7.5c0 1.1-.9 1.9-1.9 1.9s-1.9-.9-1.9-1.9.9-1.9 1.9-1.9 1.9.8 1.9 1.9z"/></symbol><symbol id="icon-social-linkedin" viewBox="0 0 32 32"><title>Linkedin</title><path fill="currentColor" d="M29 0H3C1.4 0 0 1.4 0 3v26c0 1.6 1.4 3 3 3h26c1.6 0 3-1.4 3-3V3c0-1.6-1.4-3-3-3zM12 26H8V12h4v14zm-2-16c-1.1 0-2-.9-2-2s.9-2 2-2 2 .9 2 2-.9 2-2 2zm16 16h-4v-8c0-1.1-.9-2-2-2s-2 .9-2 2v8h-4V12h4v2.5c.8-1.1 2.1-2.5 3.5-2.5 2.5 0 4.5 2.2 4.5 5v9z"/></symbol><symbol id="icon-social-pinterest" viewBox="0 0 27.7 27.7"><title>Pinterest</title><path fill="currentColor" d="M13.9 0C6.2 0 0 6.2 0 13.9c0 5.9 3.7 10.9 8.8 12.9-.1-1.1-.2-2.8.1-4 .3-1.1 1.6-6.9 1.6-6.9s-.4-.8-.4-2.1c0-1.9 1.1-3.4 2.5-3.4 1.2 0 1.8.9 1.8 2 0 1.2-.8 3-1.1 4.6-.3 1.4.7 2.5 2 2.5 2.5 0 4.4-2.6 4.4-6.4 0-3.3-2.4-5.6-5.8-5.6-3.9 0-6.3 3-6.3 6 0 1.2.5 2.5 1 3.2.1.1.1.3.1.4-.1.4-.3 1.4-.4 1.6-.1.3-.2.3-.5.2-1.7-.8-2.8-3.3-2.8-5.4 0-4.4 3.2-8.4 9.2-8.4 4.8 0 8.5 3.4 8.5 8 0 4.8-3 8.6-7.2 8.6-1.4 0-2.7-.7-3.2-1.6 0 0-.7 2.6-.9 3.3-.3 1.2-1.2 2.7-1.7 3.6 1.3.4 2.7.6 4.1.6 7.7 0 13.9-6.2 13.9-13.9C27.7 6.2 21.5 0 13.9 0z"/></symbol><symbol id="icon-social-snapchat" viewBox="0 0 32 29.9"><title>Snapchat</title><path fill="currentColor" d="M16.3 0c1.3 0 5.8.4 7.9 5.1.7 1.6.5 4.3.4 6.5v.8c.1.1.3.1.5.1.4 0 .9-.2 1.4-.4.2-.1.5-.1.6-.1.2 0 .5 0 .7.1.6.2 1 .6 1 1.1 0 .6-.5 1.1-1.6 1.6-.1 0-.3.1-.5.2-.6.2-1.5.5-1.8 1.1-.1.3-.1.7.2 1.2.1.2 2 4.6 6.4 5.4.3.1.6.4.6.7 0 .1 0 .2-.1.3-.3.8-1.7 1.3-4.2 1.7-.1.1-.2.5-.2.8 0 .2-.1.5-.2.7-.1.4-.4.5-.7.5-.2 0-.4 0-.7-.1-.5-.1-1-.2-1.7-.2-.4 0-.8 0-1.2.1-.8.1-1.5.6-2.3 1.2-1.1.8-2.4 1.7-4.4 1.7H16c-2 0-3.2-.9-4.4-1.7-.8-.6-1.5-1-2.3-1.2-.4-.1-.8-.1-1.2-.1-.7 0-1.3.1-1.7.2-.3.1-.5.1-.7.1-.5 0-.7-.3-.8-.6-.1-.3-.1-.5-.2-.8-.1-.2-.1-.7-.2-.8-2.6-.3-3.9-.9-4.3-1.6-.2-.2-.2-.3-.2-.4 0-.3.2-.6.6-.7 4.4-.7 6.3-5.2 6.4-5.4.2-.5.3-.9.2-1.2-.3-.6-1.2-.9-1.8-1.1-.2 0-.3-.1-.5-.2-1.5-.6-1.7-1.2-1.6-1.7.1-.6.9-1.1 1.6-1.1.2 0 .4 0 .5.1.6.3 1.1.4 1.5.4.3 0 .5-.1.6-.1l-.1-.8c-.1-2-.3-4.7.4-6.3C9.9.4 14.3 0 15.6 0h.7z"/></symbol><symbol id="icon-social-twitter" viewBox="0 0 32 26"><title>Twitter</title><path fill="currentColor" d="M32 3.1c-1.2.5-2.4.9-3.8 1 1.4-.8 2.4-2.1 2.9-3.6-1.3.8-2.7 1.3-4.2 1.6C25.8.8 24 0 22.2 0c-3.6 0-6.6 2.9-6.6 6.6 0 .5.1 1 .2 1.5-5.5-.3-10.3-2.9-13.6-6.9-.6 1-.9 2.1-.9 3.3 0 2.3 1.2 4.3 2.9 5.5-1.1 0-2.1-.3-3-.8v.1c0 3.2 2.3 5.8 5.3 6.4-.6.1-1.1.2-1.7.2-.4 0-.8 0-1.2-.1.8 2.6 3.3 4.5 6.1 4.6-2.3 1.8-5.1 2.8-8.2 2.8-.5 0-1 0-1.6-.1 2.9 1.9 6.4 3 10.1 3 12.1 0 18.7-10 18.7-18.7v-.9c1.3-.9 2.4-2.1 3.3-3.4z"/></symbol><symbol id="icon-social-youtube" viewBox="0 0 23.2 28"><title>Youtube</title><path fill="currentColor" d="M14.8 19.4v3.3c0 .7-.2 1-.6 1-.2 0-.5-.1-.7-.3v-4.7c.2-.2.5-.3.7-.3.3 0 .6.4.6 1zm5.2.1v.7h-1.4v-.7c0-.7.2-1.1.7-1.1s.7.4.7 1.1zM4.9 16h1.7v-1.5H1.7V16h1.6v8.9h1.6V16zm4.5 8.9h1.4v-7.7H9.4v5.9c-.3.4-.6.7-.9.7-.2 0-.3-.1-.3-.3v-6.2H6.8v6.1c0 .5 0 .9.1 1.1.2.4.5.5.9.5.5 0 1-.3 1.6-1v.9zm6.7-2.3v-3.1c0-.7 0-1.2-.1-1.5-.2-.6-.6-.9-1.1-.9-.5 0-1 .3-1.5.8v-3.4H12v10.4h1.4v-.8c.5.6 1 .9 1.5.9s.9-.3 1.1-.9c.1-.2.1-.8.1-1.5zm5.3-.1v-.2H20v1c-.1.4-.3.6-.6.6-.5 0-.7-.4-.7-1.1v-1.4h2.8v-1.6c0-.8-.1-1.4-.4-1.8-.4-.5-1-.8-1.7-.8s-1.3.3-1.7.8c-.3.4-.4 1-.4 1.8v2.7c0 .8.2 1.4.5 1.8.4.5 1 .8 1.7.8s1.3-.3 1.7-.8c.2-.3.3-.5.3-.8-.1-.3-.1-.6-.1-1zM11.9 8.2V4.9c0-.7-.2-1.1-.7-1.1-.5 0-.7.4-.7 1.1v3.3c0 .7.2 1.1.7 1.1.5 0 .7-.4.7-1.1zm11.3 11.7c0 1.8 0 3.7-.4 5.5-.3 1.2-1.3 2.1-2.5 2.3-2.9.3-5.8.3-8.7.3s-5.8 0-8.7-.3c-1.2-.1-2.2-1-2.5-2.3-.4-1.7-.4-3.7-.4-5.5 0-1.8 0-3.7.4-5.5.3-1.2 1.3-2.1 2.5-2.3 2.9-.3 5.8-.3 8.7-.3s5.8 0 8.7.3c1.2.1 2.2 1 2.5 2.3.4 1.8.4 3.7.4 5.5zM7.6 0h1.6L7.3 6.2v4.2H5.7V6.2c-.1-.8-.5-1.9-1-3.3C4.4 2 4.1 1 3.7 0h1.7l1.1 4.1L7.6 0zm5.7 5.2v2.7c0 .8-.1 1.5-.4 1.8-.4.5-.9.8-1.7.8-.7 0-1.3-.3-1.6-.8-.3-.4-.4-1-.4-1.8V5.2c0-.8.1-1.4.4-1.8.4-.5.9-.8 1.6-.8.7 0 1.3.3 1.7.8.3.4.4 1 .4 1.8zm5.3-2.5v7.8h-1.4v-.9c-.6.7-1.1 1-1.6 1s-.8-.2-.9-.6c-.1-.2-.1-.6-.1-1.2V2.7H16v6.2c0 .2.1.3.3.3.3 0 .6-.2.9-.7v-6l1.4.2z"/></symbol><symbol id="icon-succes" viewBox="0 0 30 30"><title>Succes</title><path fill="currentColor" d="M12 22.5L25.5 9l-2.1-2.3L12 18.2l-5.4-5.3L4.5 15l7.5 7.5zM15 0c8.3 0 15 6.8 15 15s-6.8 15-15 15S0 23.3 0 15 6.8 0 15 0z"/></symbol><symbol id="icon-twitter" viewBox="0 0 10.1 8.2"><title>Twitter</title><path fill="currentColor" d="M9.1 2.1v.3c0 2.7-2.1 5.9-5.9 5.9-1.1-.1-2.2-.4-3.2-1 1.1.1 2.2-.2 3.1-.9-.9 0-1.7-.6-2-1.4.3.1.6 0 .9 0C1 4.8.3 4 .3 3c.4.1.7.2 1 .2C.4 2.6.2 1.3.7.4 1.8 1.7 3.3 2.5 5 2.6 4.7 1.4 5.4.3 6.5.1c.7-.2 1.5.1 2 .6.5-.1.9-.3 1.4-.5-.2.4-.5.8-1 1.1.4 0 .8-.2 1.2-.3-.2.4-.6.8-1 1.1z"/></symbol><symbol id="icon-warning" viewBox="0 0 30 25.9"><title>Warning</title><path fill="currentColor" d="M16.3 16.3v-5.5h-2.7v5.5h2.7zm0 5.5V19h-2.7v2.7h2.7zM0 25.9L15 0l15 25.9H0z"/></symbol></svg>