<svg xmlns="http://www.w3.org/2000/svg" width="260" height="260" viewBox="0 0 260 260">
    <path fill="#2ba9e0" d="M0 0h260v260H0z"/>
    <path fill="#fff" d="M130.3 212.4h-.6c-32.9 0-59.6-25.8-59.6-57.5 0-27.1 18.3-45.3 37.6-64.6 7.9-7.9 16-16 22.8-24.8 6.5 8.3 14.1 16 21.6 23.6 19.5 19.8 37.8 38.5 37.8 65.7 0 31.8-26.8 57.6-59.6 57.6m2-179.3l-2-13.1-2.2 13.1c-11 40.1-75.6 63.2-75.6 121.8 0 41.5 34.6 75.1 77.2 75.1h.6c42.6 0 77.2-33.6 77.2-75.1 0-57.9-63-82.5-75.2-121.8"/>
    <path fill="#fff" d="M99.9 149.4H91c-1 0-1.8.8-1.8 1.8v8.9c0 1 .8 1.8 1.8 1.8h8.9c1 0 1.8-.8 1.8-1.8v-8.9c-.1-1-.9-1.8-1.8-1.8m35.1 33.4h-8.9c-1 0-1.8.8-1.8 1.8v8.9c0 1 .8 1.8 1.8 1.8h8.9c1 0 1.8-.8 1.8-1.8v-8.9c0-1-.8-1.8-1.8-1.8m29.8-33.7h-28.2v-32.4l-6.1-9.2-6.1 8.8v45l40.3.1 7.3-6.2-7.2-6.1z"/>
</svg>
