<svg xmlns="http://www.w3.org/2000/svg" width="32" height="32" viewBox="0 0 32 32">
    <path fill="#fff" d="M16.06 0C7.16 0 0 7.19 0 16.12c0 6.84 4.27 12.64 10.17 14.96-.12-1.28-.23-3.25.12-4.64.35-1.28 1.85-8 1.85-8s-.46-.93-.46-2.43c0-2.2 1.27-3.94 2.89-3.94 1.39 0 2.08 1.04 2.08 2.32 0 1.39-.92 3.48-1.27 5.33-.35 1.62.81 2.9 2.31 2.9 2.89 0 5.08-3.01 5.08-7.42 0-3.83-2.77-6.49-6.7-6.49-4.51 0-7.28 3.48-7.28 6.96 0 1.39.58 2.9 1.16 3.71.12.12.12.35.12.46-.12.46-.35 1.62-.46 1.86-.12.35-.23.35-.58.23C7.07 21 5.8 18.1 5.8 15.67c0-5.1 3.7-9.74 10.63-9.74 5.55 0 9.82 3.94 9.82 9.28 0 5.57-3.47 9.97-8.32 9.97-1.62 0-3.12-.81-3.7-1.86 0 0-.81 3.01-1.04 3.83-.35 1.39-1.39 3.13-1.96 4.17 1.5.46 3.12.7 4.74.7C24.84 32 32 24.81 32 15.88 32 7.19 24.84 0 16.06 0z"/>
</svg>
