<svg xmlns="http://www.w3.org/2000/svg" width="19" height="16" viewBox="0 0 19 16">
    <title>
        Twitter
    </title>
    <path fill="#fff" d="M16.83 3.868v.472c0 5.034-3.849 10.807-10.939 10.807-2.19 0-4.218-.62-5.891-1.713.31.06.622.06.932.06 1.821 0 3.434-.62 4.796-1.61-1.658-.074-3.123-1.166-3.582-2.672.207.103.415.103.681.103.37 0 .681-.059.992-.162C2.043 8.784.74 7.278.74 5.418v-.059c.518.266 1.095.472 1.717.472A3.824 3.824 0 0 1 .74 2.657c0-.679.207-1.343.518-1.919A10.911 10.911 0 0 0 9.177 4.68a4.154 4.154 0 0 1-.104-.886C9.073 1.713 10.79 0 12.922 0c1.095 0 2.087.472 2.812 1.196a6.88 6.88 0 0 0 2.442-.93 3.787 3.787 0 0 1-1.717 2.081 9.356 9.356 0 0 0 2.191-.575 4.938 4.938 0 0 1-1.82 2.096z"/>
</svg>
