<svg xmlns="http://www.w3.org/2000/svg" width="26.51" height="32" viewBox="0 0 26.51 32">
    <path fill="#fff" d="M16.91 22.17v3.77c0 .8-.23 1.14-.69 1.14-.23 0-.57-.11-.8-.34v-5.37c.23-.23.57-.34.8-.34.35 0 .69.46.69 1.14zm5.95.12v.8h-1.6v-.8c0-.8.23-1.26.8-1.26s.8.46.8 1.26zm-17.26-4h1.94v-1.71h-5.6v1.71h1.83v10.17H5.6V18.29zm5.14 10.17h1.6v-8.8h-1.6v6.74c-.34.46-.69.8-1.03.8-.23 0-.34-.11-.34-.34v-7.09h-1.6v6.97c0 .57 0 1.03.11 1.26.23.46.57.57 1.03.57.57 0 1.14-.34 1.83-1.14v1.03zm7.66-2.63v-3.54c0-.8 0-1.37-.11-1.71-.23-.69-.69-1.03-1.26-1.03s-1.14.34-1.71.91v-3.89h-1.6v11.89h1.6v-.91c.57.69 1.14 1.03 1.71 1.03s1.03-.34 1.26-1.03c.11-.24.11-.92.11-1.72zm6.06-.12v-.23h-1.6v1.14c-.11.46-.34.69-.69.69-.57 0-.8-.46-.8-1.26v-1.6h3.2v-1.83c0-.91-.11-1.6-.46-2.06a2.44 2.44 0 0 0-1.94-.91c-.8 0-1.49.34-1.94.91-.34.46-.46 1.14-.46 2.06v3.09c0 .91.23 1.6.57 2.06.46.57 1.14.91 1.94.91s1.49-.34 1.94-.91c.23-.34.34-.57.34-.91-.1-.35-.1-.69-.1-1.15zM13.6 9.37V5.6c0-.8-.23-1.26-.8-1.26-.57 0-.8.46-.8 1.26v3.77c0 .8.23 1.26.8 1.26.57 0 .8-.46.8-1.26zm12.91 13.37c0 2.06 0 4.23-.46 6.29-.34 1.37-1.49 2.4-2.86 2.63-3.3.34-6.62.34-9.93.34s-6.63 0-9.94-.34C1.95 31.55.81 30.52.46 29.03 0 27.09 0 24.8 0 22.74s0-4.23.46-6.29c.34-1.37 1.49-2.4 2.86-2.63 3.31-.34 6.63-.34 9.94-.34s6.63 0 9.94.34c1.37.11 2.51 1.14 2.86 2.63.45 2.06.45 4.24.45 6.29zM8.69 0h1.83L8.34 7.09v4.8H6.51v-4.8c-.11-.92-.57-2.18-1.14-3.78C5.03 2.29 4.69 1.14 4.23 0h1.94l1.26 4.69L8.69 0zm6.51 5.94v3.09c0 .91-.11 1.71-.46 2.06-.45.57-1.03.91-1.94.91-.8 0-1.49-.34-1.83-.91-.34-.46-.46-1.14-.46-2.06V5.94c0-.91.11-1.6.46-2.06.46-.57 1.03-.91 1.83-.91s1.49.34 1.94.91c.35.46.46 1.15.46 2.06zm6.06-2.85V12h-1.6v-1.03c-.69.8-1.26 1.14-1.83 1.14s-.91-.23-1.03-.69c-.11-.23-.11-.69-.11-1.37V3.09h1.6v7.09c0 .23.11.34.34.34.34 0 .69-.23 1.03-.8V2.86l1.6.23z"/>
</svg>
