<svg xmlns="http://www.w3.org/2000/svg" width="155" height="66.7" viewBox="0 0 155 66.7">
    <title>
        Drupal in a Day
    </title>
    <path fill="#fff" d="M24.7 61.1h-.2c-10.4 0-18.9-8.2-18.9-18.3 0-8.6 5.8-14.4 11.9-20.5 2.5-2.5 5.1-5.1 7.2-7.9 2.1 2.6 4.5 5.1 6.8 7.5 6.2 6.3 12 12.2 12 20.9.1 10.1-8.4 18.3-18.8 18.3m.7-56.9L24.7 0 24 4.2c-3.5 12.7-24 20-24 38.7C0 56 11 66.7 24.5 66.7h.2c13.5 0 24.5-10.7 24.5-23.9 0-18.3-20-26.1-23.8-38.6m79.2 26.9c0 2.5-1.1 4.5-3.6 4.5s-3.6-2-3.6-4.5v-8.5h-4.6v8.5c0 4.9 3.2 8.8 8.1 8.8 4.9 0 8.2-4 8.2-8.8v-8.5h-4.6l.1 8.5zm45.8 8.4h4.5v-22h-4.5v22zM82.7 25.7c-.1.1-.1.2-.2.2s-.2-.2-.2-.2l-.5-2.9h-4.1v16.8h4.6v-9.1c0-.7 2-4.3 6-3.4 2 .5 2.8 1.3 2.8 1.3v-5.1c-.7-.4-1.2-.6-1.9-.7-3.9-1-6.4 2.8-6.5 3.1m37.1 10.1c-2.5 0-4.6-2-4.6-4.5s2-4.5 4.6-4.5c2.5 0 4.6 2 4.6 4.5 0 2.4-2.1 4.5-4.6 4.5m0-13.4c-5 0-9 4-9 8.9v13.8h4.6v-8.4s0-.2.2-.2c.1 0 .2.1.2.2.3.9 2.3 4.1 6.5 3.1 3.8-1.1 6.6-4.5 6.6-8.6-.1-4.9-4.1-8.9-9.1-8.8m19.8 13.4c-2.5 0-4.6-2-4.6-4.5s2-4.5 4.6-4.5c2.5 0 4.6 2 4.6 4.5-.1 2.4-2.1 4.5-4.6 4.5m0-13.5c-5 0-9 4-9 8.9 0 4.1 2.8 7.5 6.6 8.6 4.2 1 6.1-2.2 6.5-3.1 0-.1.1-.2.2-.2.2 0 .2.2.2.2v2.8h4.6v-8.3c-.1-4.9-4.1-8.9-9.1-8.9M64.7 35.7h-1.9V21.3h1.8c4.2 0 6.4.6 6.4 7.2.1 6.9-2.4 7.2-6.3 7.2m-.9-18.2h-5.6v22h5.2c6.8 0 12.3-1.3 12.3-11 0-9.8-5.1-11-11.9-11m-4.4 41h1.1v-9.3h-1.1v9.3zm5.1-9.3h1.4l5.4 7.7v-7.7h1.1v9.3H71l-5.4-7.7v7.7h-1.1v-9.3zm20.8 1.4l-2 4.6h3.8l-1.8-4.6zm-.5-1.4h1l3.9 9.3h-1.3l-.9-2.3h-4.6l-1 2.3h-1.2l4.1-9.3zM99 57.5h2.1c.5 0 1-.1 1.5-.2.4-.1.8-.3 1.2-.6.3-.3.6-.7.8-1.1s.3-1 .3-1.6c0-.6-.1-1.2-.3-1.6-.2-.4-.4-.8-.8-1.1-.3-.3-.7-.5-1.2-.6-.5-.1-1-.2-1.5-.2H99v7zm-1.1-8.3h3.6c.7 0 1.4.2 2 .4.3.2.7.3 1 .6.3.2.6.5.8.9.2.3.4.7.6 1.2.1.5.2 1 .2 1.5s-.1 1.1-.2 1.5-.3.8-.6 1.2c-.2.3-.5.6-.8.9-.6.5-1.3.8-2 .9-.3.1-.7.1-1 .1h-3.6v-9.2zm15.1 1.4l-2 4.6h3.8l-1.8-4.6zm-.5-1.4h1l3.9 9.3h-1.3l-.9-2.3h-4.6l-1 2.3h-1.2l4.1-9.3zm9.1 5.3l-3.5-5.3h1.4l2.6 4.2 2.7-4.2h1.3l-3.5 5.3v4h-1.1v-4z"/>
    <path fill="#fff" d="M15 41.1h-2.8c-.3 0-.6.2-.6.6v2.8c0 .3.3.6.6.6H15c.3 0 .6-.3.6-.6v-2.8c0-.3-.3-.6-.6-.6m11.2 10.6h-2.8c-.3 0-.6.2-.6.6v2.8c0 .3.3.6.6.6h2.8c.3 0 .6-.3.6-.6v-2.8c0-.3-.3-.6-.6-.6M35.7 41h-9V30.7l-2-2.9-2 2.8v14.3h12.8l2.3-2-2.1-1.9z"/>
</svg>
