<?xml version="1.0" standalone="no"?>
<!DOCTYPE svg PUBLIC "-//W3C//DTD SVG 20010904//EN"
 "http://www.w3.org/TR/2001/REC-SVG-20010904/DTD/svg10.dtd">
<svg version="1.0" xmlns="http://www.w3.org/2000/svg"
 width="700.000000pt" height="700.000000pt" viewBox="0 0 700.000000 700.000000"
 preserveAspectRatio="xMidYMid meet">
<metadata>
Created by potrace 1.11, written by Peter Selinger 2001-2013
</metadata>
<g transform="translate(0.000000,700.000000) scale(0.100000,-0.100000)"
fill="#000000" stroke="none">
<path d="M3500 6419 c0 -6 -9 -61 -20 -122 -10 -62 -22 -128 -25 -147 -14 -79
-43 -162 -103 -290 -29 -61 -121 -210 -176 -284 -131 -176 -251 -309 -618
-680 -266 -271 -306 -312 -407 -421 -214 -232 -401 -495 -520 -734 -45 -89
-118 -272 -126 -313 -2 -10 -6 -22 -9 -26 -3 -5 -7 -21 -10 -36 -3 -15 -10
-42 -15 -59 -52 -164 -71 -539 -37 -757 14 -91 21 -126 37 -190 129 -521 476
-982 947 -1259 197 -115 424 -204 632 -247 167 -34 230 -39 455 -39 174 0 273
6 350 21 11 2 47 9 80 15 100 18 300 80 405 127 257 112 458 249 655 446 203
204 324 384 449 669 14 31 25 58 25 60 0 2 7 26 22 67 15 46 57 215 64 260 4
25 9 54 11 65 18 96 23 362 10 490 -23 225 -80 432 -177 650 -50 111 -165 317
-180 323 -5 2 -9 9 -9 14 0 6 -17 34 -39 62 -21 28 -63 86 -94 128 -54 74
-204 256 -237 288 -8 8 -35 38 -59 65 -24 28 -156 165 -292 305 -243 251 -274
283 -374 392 -79 85 -207 237 -256 303 -24 33 -46 62 -49 65 -3 3 -29 41 -57
85 -63 97 -147 262 -173 342 -16 48 -58 284 -63 355 -1 19 -17 26 -17 7z m86
-1271 c111 -134 248 -280 607 -648 174 -179 264 -276 326 -350 30 -36 60 -69
66 -75 5 -5 26 -30 45 -55 19 -25 37 -47 40 -50 17 -16 96 -128 149 -210 131
-203 230 -441 266 -640 4 -19 9 -46 12 -60 3 -14 6 -108 7 -210 3 -184 -2
-231 -49 -428 -15 -61 -81 -220 -128 -306 -95 -174 -243 -353 -392 -473 -220
-177 -490 -294 -795 -344 -127 -21 -396 -16 -533 10 -499 92 -917 392 -1145
823 -35 65 -98 217 -108 258 -2 8 -10 40 -18 70 -9 30 -18 73 -22 95 -3 22 -9
60 -14 85 -10 49 -6 377 4 425 9 43 16 76 22 110 10 55 74 237 114 323 95 201
213 371 450 646 31 36 206 219 388 404 382 389 461 473 573 614 30 37 57 67
60 68 3 0 37 -37 75 -82z"/>
<path d="M3431 3988 l-80 -113 -1 -607 c0 -335 3 -608 8 -609 4 0 248 -2 542
-3 l534 -2 99 84 c54 47 95 88 90 91 -4 4 -35 30 -68 57 -33 27 -72 60 -88 74
l-28 26 -379 -1 -380 0 -1 25 c0 14 -1 210 -1 435 l0 410 -80 123 c-45 67 -82
122 -84 122 -2 0 -39 -51 -83 -112z"/>
<path d="M2421 2964 c-18 -13 -20 -25 -19 -152 0 -109 3 -141 16 -154 13 -16
34 -18 153 -18 173 0 166 -7 168 172 2 171 7 166 -167 166 -96 0 -136 -4 -151
-14z"/>
<path d="M3364 2065 c-15 -10 -17 -31 -17 -154 -1 -179 -9 -170 168 -171 72 0
135 4 141 8 24 16 30 52 29 176 -1 109 -4 131 -18 141 -24 18 -279 18 -303 0z"/>
</g>
</svg>
